<?xml version="1.0" encoding="UTF-8"?>
<svg id="Calque_1" data-name="Calque 1" xmlns="http://www.w3.org/2000/svg" viewBox="0 0 143.9 80">
  <defs>
    <style>
      .cls-1 {
        fill: #16a34a;
      }
    </style>
  </defs>
  <path class="cls-1" d="m48.2,29.86v1.6c0,15.52,0,31.03,0,46.55,0,.33-.02.67,0,1,.04.71-.23,1.02-.98.99-1.23-.05-2.46-.01-3.69-.01-13.99,0-27.98,0-41.96,0q-1.55,0-1.55-1.59c0-8.41.01-16.81-.02-25.22,0-.85.27-1.3,1.04-1.67,15.1-7.27,30.19-14.57,45.28-21.87,14.14-6.84,28.28-13.68,42.42-20.51,6.19-2.99,12.37-5.97,18.58-8.9.5-.24,1.25-.29,1.77-.11,11.22,3.86,22.43,7.78,33.65,11.66.75.26,1.02.61,1.01,1.42-.02,21.86-.02,43.72,0,65.59,0,.96-.27,1.23-1.23,1.23-15.22-.03-30.43-.02-45.65-.02-1.32,0-1.33,0-1.33-1.33,0-10.33-.02-20.67.02-31,0-1.06-.34-1.48-1.32-1.82-14.92-5.16-29.82-10.36-44.72-15.55-.37-.13-.74-.24-1.34-.43Z"/>
</svg>