<?xml version="1.0" encoding="UTF-8"?>
<svg id="Calque_1" data-name="Calque 1" xmlns="http://www.w3.org/2000/svg" viewBox="0 0 300 100">
  <defs>
    <style>
      .cls-1 {
        fill: #16a34a;
      }
    </style>
  </defs>
  <path class="cls-1" d="m48.2,29.86v1.6c0,15.52,0,31.03,0,46.55,0,.33-.02.67,0,1,.04.71-.23,1.02-.98.99-1.23-.05-2.46-.01-3.69-.01-13.99,0-27.98,0-41.96,0q-1.55,0-1.55-1.59c0-8.41.01-16.81-.02-25.22,0-.85.27-1.3,1.04-1.67,15.1-7.27,30.19-14.57,45.28-21.87,14.14-6.84,28.28-13.68,42.42-20.51,6.19-2.99,12.37-5.97,18.58-8.9.5-.24,1.25-.29,1.77-.11,11.22,3.86,22.43,7.78,33.65,11.66.75.26,1.02.61,1.01,1.42-.02,21.86-.02,43.72,0,65.59,0,.96-.27,1.23-1.23,1.23-15.22-.03-30.43-.02-45.65-.02-1.32,0-1.33,0-1.33-1.33,0-10.33-.02-20.67.02-31,0-1.06-.34-1.48-1.32-1.82-14.92-5.16-29.82-10.36-44.72-15.55-.37-.13-.74-.24-1.34-.43Z"/>
  <g>
    <path class="cls-1" d="m153.99,29.96V12.03h6.04v13.24h8.09v4.69h-14.14Z"/>
    <path class="cls-1" d="m178.96,30.37c-1.47,0-2.82-.23-4.06-.69-1.24-.46-2.31-1.11-3.21-1.96s-1.61-1.84-2.11-2.98c-.5-1.14-.76-2.39-.76-3.74s.25-2.62.76-3.75c.5-1.14,1.21-2.13,2.11-2.97s1.98-1.5,3.21-1.96c1.24-.46,2.58-.69,4.03-.69s2.82.23,4.05.69c1.23.46,2.3,1.11,3.2,1.96.9.85,1.61,1.84,2.11,2.97.5,1.14.76,2.39.76,3.75s-.25,2.6-.76,3.74c-.5,1.14-1.21,2.14-2.11,2.98-.91.85-1.97,1.5-3.2,1.96-1.23.46-2.57.69-4.02.69Zm-.03-4.89c.56,0,1.09-.1,1.57-.31.49-.2.91-.5,1.28-.88.37-.38.65-.85.86-1.41.21-.55.31-1.18.31-1.88s-.1-1.33-.31-1.88c-.2-.55-.49-1.02-.86-1.41-.37-.38-.79-.68-1.28-.88-.49-.21-1.01-.31-1.57-.31s-1.09.1-1.58.31c-.49.2-.91.5-1.28.88-.37.38-.65.85-.86,1.41-.21.55-.31,1.18-.31,1.88s.1,1.33.31,1.88c.2.55.49,1.02.86,1.41.37.38.79.68,1.28.88.49.21,1.01.31,1.58.31Z"/>
    <path class="cls-1" d="m200.52,30.37c-1.43,0-2.76-.23-3.98-.68-1.22-.45-2.28-1.1-3.18-1.93-.9-.84-1.59-1.83-2.09-2.97-.5-1.14-.74-2.41-.74-3.79s.25-2.65.74-3.79c.5-1.14,1.19-2.13,2.09-2.97s1.95-1.48,3.18-1.93c1.22-.45,2.55-.68,3.98-.68,1.76,0,3.32.31,4.67.92,1.36.61,2.48,1.5,3.37,2.66l-3.82,3.41c-.53-.67-1.11-1.18-1.75-1.55-.64-.37-1.36-.55-2.16-.55-.63,0-1.2.1-1.72.31-.51.2-.95.5-1.32.9-.37.39-.65.87-.86,1.42-.21.55-.31,1.17-.31,1.86s.1,1.3.31,1.86c.2.55.49,1.03.86,1.42.37.39.81.69,1.32.9.51.21,1.08.31,1.72.31.8,0,1.52-.18,2.16-.55.64-.37,1.23-.88,1.75-1.55l3.82,3.41c-.89,1.14-2.01,2.03-3.37,2.65-1.36.62-2.92.93-4.67.93Z"/>
    <path class="cls-1" d="m221.88,12.03h-5.94l-7.83,17.92h6.14l1.21-3.13h6.81l1.21,3.13h6.25l-7.84-17.92Zm-4.76,10.45l1.74-4.52,1.73,4.52h-3.47Z"/>
    <path class="cls-1" d="m233.69,29.96v-13.24h-5.25v-4.69h16.54v4.69h-5.25v13.24h-6.04Z"/>
    <path class="cls-1" d="m246.55,29.96V12.03h6.04v17.93h-6.04Z"/>
    <path class="cls-1" d="m264.94,30.37c-1.47,0-2.82-.23-4.06-.69-1.24-.46-2.31-1.11-3.21-1.96s-1.61-1.84-2.11-2.98c-.5-1.14-.76-2.39-.76-3.74s.25-2.62.76-3.75c.5-1.14,1.21-2.13,2.11-2.97s1.98-1.5,3.21-1.96c1.24-.46,2.58-.69,4.03-.69s2.82.23,4.05.69c1.23.46,2.3,1.11,3.2,1.96.9.85,1.61,1.84,2.11,2.97.5,1.14.76,2.39.76,3.75s-.25,2.6-.76,3.74c-.5,1.14-1.21,2.14-2.11,2.98-.91.85-1.97,1.5-3.2,1.96-1.23.46-2.57.69-4.02.69Zm-.03-4.89c.56,0,1.09-.1,1.57-.31.49-.2.91-.5,1.28-.88.37-.38.65-.85.86-1.41.21-.55.31-1.18.31-1.88s-.1-1.33-.31-1.88c-.2-.55-.49-1.02-.86-1.41-.37-.38-.79-.68-1.28-.88-.49-.21-1.01-.31-1.57-.31s-1.09.1-1.58.31c-.49.2-.91.5-1.28.88-.37.38-.65.85-.86,1.41-.21.55-.31,1.18-.31,1.88s.1,1.33.31,1.88c.2.55.49,1.02.86,1.41.37.38.79.68,1.28.88.49.21,1.01.31,1.58.31Z"/>
    <polygon class="cls-1" points="294.9 12.03 294.9 29.96 289.93 29.96 283.12 21.8 283.12 29.96 277.23 29.96 277.23 12.03 282.19 12.03 289.01 20.19 289.01 12.03 294.9 12.03"/>
  </g>
  <g>
    <path class="cls-1" d="m151.89,49.77v-4.35h7.68v4.35h-7.68Z"/>
    <polygon class="cls-1" points="180.57 37.06 172.99 54.99 167.05 54.99 159.47 37.06 165.97 37.06 170.24 47.52 174.63 37.06 180.57 37.06"/>
    <path class="cls-1" d="m192.35,37.06h-5.94l-7.83,17.92h6.14l1.21-3.13h6.81l1.21,3.13h6.25l-7.84-17.92Zm-4.76,10.45l1.74-4.52,1.73,4.52h-3.47Z"/>
    <path class="cls-1" d="m210.18,55.4c-1.43,0-2.76-.23-3.98-.68-1.22-.45-2.28-1.1-3.18-1.93-.9-.84-1.59-1.83-2.09-2.97-.5-1.14-.74-2.41-.74-3.79s.25-2.65.74-3.79c.5-1.14,1.19-2.13,2.09-2.97s1.95-1.48,3.18-1.93c1.22-.45,2.55-.68,3.98-.68,1.76,0,3.32.31,4.67.92,1.36.61,2.48,1.5,3.37,2.66l-3.82,3.41c-.53-.67-1.11-1.18-1.75-1.55-.64-.37-1.36-.55-2.16-.55-.63,0-1.2.1-1.72.31-.51.2-.95.5-1.32.9-.37.39-.65.87-.86,1.42-.21.55-.31,1.17-.31,1.86s.1,1.3.31,1.86c.2.55.49,1.03.86,1.42.37.39.81.69,1.32.9.51.21,1.08.31,1.72.31.8,0,1.52-.18,2.16-.55.64-.37,1.23-.88,1.75-1.55l3.82,3.41c-.89,1.14-2.01,2.03-3.37,2.65-1.36.62-2.92.93-4.67.93Z"/>
    <path class="cls-1" d="m231.54,37.06h-5.94l-7.83,17.92h6.14l1.21-3.13h6.81l1.21,3.13h6.25l-7.84-17.92Zm-4.76,10.45l1.74-4.52,1.73,4.52h-3.47Z"/>
    <polygon class="cls-1" points="258.02 37.06 258.02 54.99 253.05 54.99 246.24 46.83 246.24 54.99 240.35 54.99 240.35 37.06 245.31 37.06 252.13 45.22 252.13 37.06 258.02 37.06"/>
    <path class="cls-1" d="m270.21,55.4c-1.43,0-2.76-.23-3.98-.68-1.22-.45-2.28-1.1-3.18-1.93-.9-.84-1.59-1.83-2.09-2.97-.5-1.14-.74-2.41-.74-3.79s.25-2.65.74-3.79c.5-1.14,1.19-2.13,2.09-2.97s1.95-1.48,3.18-1.93c1.22-.45,2.55-.68,3.98-.68,1.76,0,3.32.31,4.67.92,1.36.61,2.48,1.5,3.37,2.66l-3.82,3.41c-.53-.67-1.11-1.18-1.75-1.55-.64-.37-1.36-.55-2.16-.55-.63,0-1.2.1-1.72.31-.51.2-.95.5-1.32.9-.37.39-.65.87-.86,1.42-.21.55-.31,1.17-.31,1.86s.1,1.3.31,1.86c.2.55.49,1.03.86,1.42.37.39.81.69,1.32.9.51.21,1.08.31,1.72.31.8,0,1.52-.18,2.16-.55.64-.37,1.23-.88,1.75-1.55l3.82,3.41c-.89,1.14-2.01,2.03-3.37,2.65-1.36.62-2.92.93-4.67.93Z"/>
    <polygon class="cls-1" points="294.9 50.43 294.9 54.99 279.99 54.99 279.99 37.06 294.56 37.06 294.56 41.62 285.93 41.62 285.93 43.72 293.52 43.72 293.52 48.08 285.93 48.08 285.93 50.43 294.9 50.43"/>
  </g>
  <g>
    <path class="cls-1" d="m256.02,79.87c-.96,0-1.76-.31-2.41-.93-.65-.62-.97-1.42-.97-2.39s.32-1.78.97-2.38c.65-.6,1.45-.9,2.41-.9s1.76.3,2.41.9c.65.6.97,1.39.97,2.38s-.32,1.77-.97,2.39c-.65.62-1.45.93-2.41.93Z"/>
    <path class="cls-1" d="m264.37,79.61v-13.24h-5.25v-4.69h16.54v4.69h-5.25v13.24h-6.04Z"/>
    <polygon class="cls-1" points="294.9 61.68 294.9 79.61 289.93 79.61 283.12 71.45 283.12 79.61 277.23 79.61 277.23 61.68 282.19 61.68 289.01 69.84 289.01 61.68 294.9 61.68"/>
  </g>
</svg>